<?xml version="1.0" encoding="UTF-8" standalone="no"?>
<!-- Created with Inkscape (http://www.inkscape.org/) -->

<svg
   xmlns:dc="http://purl.org/dc/elements/1.1/"
   xmlns:cc="http://creativecommons.org/ns#"
   xmlns:rdf="http://www.w3.org/1999/02/22-rdf-syntax-ns#"
   xmlns:svg="http://www.w3.org/2000/svg"
   xmlns="http://www.w3.org/2000/svg"
   xmlns:xlink="http://www.w3.org/1999/xlink"
   xmlns:sodipodi="http://sodipodi.sourceforge.net/DTD/sodipodi-0.dtd"
   xmlns:inkscape="http://www.inkscape.org/namespaces/inkscape"
   width="86"
   height="86"
   id="svg2"
   version="1.1"
   inkscape:version="0.48.2 r9819"
   sodipodi:docname="harbour-meeteevee.svg"
   inkscape:export-filename="/Users/jpnurmi/Projects/MeeTeeVee/harbour-meeteevee.png"
   inkscape:export-xdpi="90"
   inkscape:export-ydpi="90">
  <defs
     id="defs4">
    <linearGradient
       id="linearGradient3759">
      <stop
         style="stop-color:#227c7f;stop-opacity:1;"
         offset="0"
         id="stop3761" />
      <stop
         style="stop-color:#225c6f;stop-opacity:1;"
         offset="1"
         id="stop3763" />
    </linearGradient>
    <linearGradient
       inkscape:collect="always"
       xlink:href="#linearGradient3759"
       id="linearGradient3765"
       x1="86"
       y1="0"
       x2="0"
       y2="86"
       gradientUnits="userSpaceOnUse" />
    <linearGradient
       inkscape:collect="always"
       xlink:href="#linearGradient3759"
       id="linearGradient4487"
       x1="85"
       y1="-12.999999"
       x2="0"
       y2="72"
       gradientUnits="userSpaceOnUse" />
    <linearGradient
       inkscape:collect="always"
       xlink:href="#linearGradient3759"
       id="linearGradient5742"
       x1="86"
       y1="0"
       x2="0"
       y2="86"
       gradientUnits="userSpaceOnUse" />
    <linearGradient
       inkscape:collect="always"
       xlink:href="#linearGradient4134"
       id="linearGradient4140"
       x1="39.178837"
       y1="24.455317"
       x2="39.344151"
       y2="51.070477"
       gradientUnits="userSpaceOnUse" />
    <linearGradient
       id="linearGradient4134">
      <stop
         style="stop-color:#e1e1e1;stop-opacity:1;"
         offset="0"
         id="stop4136" />
      <stop
         style="stop-color:#afafaf;stop-opacity:1;"
         offset="1"
         id="stop4138" />
    </linearGradient>
    <linearGradient
       gradientTransform="matrix(1.1828357,0,0,1.1828357,-3.9287372,960.08006)"
       y2="51.070477"
       x2="39.344151"
       y1="24.455317"
       x1="39.178837"
       gradientUnits="userSpaceOnUse"
       id="linearGradient3505"
       xlink:href="#linearGradient4134"
       inkscape:collect="always" />
  </defs>
  <sodipodi:namedview
     id="base"
     pagecolor="#ffffff"
     bordercolor="#666666"
     borderopacity="1.0"
     inkscape:pageopacity="0.0"
     inkscape:pageshadow="2"
     inkscape:zoom="4.4422944"
     inkscape:cx="21.776179"
     inkscape:cy="40.65864"
     inkscape:document-units="px"
     inkscape:current-layer="layer1"
     showgrid="true"
     inkscape:snap-global="true"
     inkscape:window-width="1280"
     inkscape:window-height="760"
     inkscape:window-x="0"
     inkscape:window-y="0"
     inkscape:window-maximized="0">
    <inkscape:grid
       type="xygrid"
       id="grid2985"
       empspacing="5"
       visible="true"
       enabled="true"
       snapvisiblegridlinesonly="true"
       spacingx="1px"
       spacingy="1px" />
  </sodipodi:namedview>
  <metadata
     id="metadata7">
    <rdf:RDF>
      <cc:Work
         rdf:about="">
        <dc:format>image/svg+xml</dc:format>
        <dc:type
           rdf:resource="http://purl.org/dc/dcmitype/StillImage" />
        <dc:title></dc:title>
      </cc:Work>
    </rdf:RDF>
  </metadata>
  <g
     inkscape:label="Layer 1"
     inkscape:groupmode="layer"
     id="layer1"
     transform="translate(0,-966.36218)">
    <path
       style="fill:url(#linearGradient5742);fill-opacity:1.0;stroke:none"
       d="M 86,43 C 86,66.748244 66.748244,86 43,86 31.487053,86 2,86 2,86 1,86 0,85 0,84 0,84 0,54.022045 0,43 0,19.251756 19.251756,0 43,0 c 10.976834,0 41,0 41,0 1,0 2,1 2,2 0,0 0,30.941882 0,41 z"
       id="path5226"
       inkscape:connector-curvature="0"
       sodipodi:nodetypes="ssccssccs"
       transform="translate(0,966.36218)" />
    <rect
       style="fill:url(#linearGradient3505);fill-opacity:1;stroke:none;display:inline"
       id="rect3364"
       width="45.75552"
       height="32.459042"
       x="20.12224"
       y="988.42017" />
    <path
       inkscape:connector-curvature="0"
       d="m 17.103415,985.39054 0,40.03926 51.793169,0 0,-40.03926 -51.79317,0 z m 5.291671,5.29168 41.209825,0 0,29.45588 -41.205897,0 -0.0039,-29.45588 z"
       id="path3013-9"
       style="opacity:0.5;fill:#000000;display:inline" />
    <path
       inkscape:connector-curvature="0"
       d="m 35.659325,1028.5606 -5.29334,5.2934 h 25.268029 l -5.293341,-5.2933 H 35.659325 z"
       id="path3015-1"
       style="opacity:0.5;fill:#000000;display:inline" />
    <g
       style="opacity:0.5;display:inline"
       id="g4271"
       transform="matrix(1.0142142,0,0,1.0142142,2.431432,951.37303)">
      <path
         style="opacity:0.09090899;fill:#000000;display:inline"
         d="m 14.96875,72.53125 c 16.6875,0 33.375,0 50.0625,0 0,-12.833333 0,-25.666667 0,-38.5 -16.6875,0 -33.375,0 -50.0625,0 0,12.833333 0,25.666667 0,38.5 z M 19.6875,38.25 c 13.708333,0 27.416667,0 41.125,0 0,10.020833 0,20.041667 0,30.0625 -13.875,0 -27.75,0 -41.625,0 0,-10.020833 0,-20.041667 0,-30.0625 l 0.5,0 z"
         id="path4273"
         inkscape:connector-curvature="0" />
      <path
         style="opacity:0.09090899;fill:#000000;display:inline"
         d="m 14.875,72.625 c 16.75,0 33.5,0 50.25,0 0,-12.895833 0,-25.791667 0,-38.6875 -16.75,0 -33.5,0 -50.25,0 0,12.895833 0,25.791667 0,38.6875 z m 4.8125,-34.28125 c 13.677083,0 27.354167,0 41.03125,0 0,9.958333 0,19.916667 0,29.875 -13.8125,0 -27.625,0 -41.4375,0 0,-9.958333 0,-19.916667 0,-29.875 l 0.4,0 0.0063,0 z"
         id="path4277"
         inkscape:connector-curvature="0" />
      <path
         style="opacity:0.09090899;fill:#000000;display:inline"
         d="m 14.78125,72.71875 c 16.8125,0 33.625,0 50.4375,0 0,-12.958333 0,-25.916667 0,-38.875 -16.8125,0 -33.625,0 -50.4375,0 0,12.958333 0,25.916667 0,38.875 z M 19.6875,38.4375 c 13.645833,0 27.291667,0 40.9375,0 0,9.895833 0,19.791667 0,29.6875 -13.75,0 -27.5,0 -41.25,0 0,-9.895833 0,-19.791667 0,-29.6875 l 0.3,0 0.0125,0 z"
         id="path4281"
         inkscape:connector-curvature="0" />
      <path
         style="opacity:0.09090899;fill:#000000;display:inline"
         d="m 14.65625,72.84375 c 16.895833,0 33.791667,0 50.6875,0 0,-13.041667 0,-26.083333 0,-39.125 -16.895833,0 -33.791667,0 -50.6875,0 0,13.041667 0,26.083333 0,39.125 z M 19.6875,38.5625 c 13.604167,0 27.208333,0 40.8125,0 0,9.8125 0,19.625 0,29.4375 -13.666667,0 -27.333333,0 -41,0 0,-9.8125 0,-19.625 0,-29.4375 l 0.1875,0 z"
         id="path4285"
         inkscape:connector-curvature="0" />
      <path
         style="opacity:0.09090899;fill:#000000;display:inline"
         d="m 14.5625,72.9375 c 16.958333,0 33.916667,0 50.875,0 0,-13.104167 0,-26.208333 0,-39.3125 -16.958333,0 -33.916667,0 -50.875,0 0,13.104167 0,26.208333 0,39.3125 z m 5.125,-34.28125 c 13.572917,0 27.145833,0 40.71875,0 0,9.75 0,19.5 0,29.25 -13.604167,0 -27.208333,0 -40.8125,0 0,-9.75 0,-19.5 0,-29.25 l 0.09375,0 z"
         id="path4289"
         inkscape:connector-curvature="0" />
      <path
         style="opacity:0.09090899;fill:#000000;display:inline"
         id="path4293"
         d="m 14.466355,33.540768 0,39.47799 51.06729,0 0,-39.47799 -51.06729,0 z m 5.217509,5.21751 40.632269,0 0,29.04297 -40.628396,0 -0.0039,-29.04297 z"
         inkscape:connector-curvature="0" />
      <path
         style="opacity:0.09090899;fill:#000000;display:inline"
         d="m 14.375,33.53125 c 0,13.197917 0,26.395833 0,39.59375 17.083333,0 34.166667,0 51.25,0 0,-13.229167 0,-26.458333 0,-39.6875 -17.083333,0 -34.166667,0 -51.25,0 l 0,0.09375 z m 45.84375,5.3125 c 0,9.625 0,19.25 0,28.875 -13.479167,0 -26.958333,0 -40.4375,0 0,-9.625 0,-19.25 0,-28.875 13.479167,0 26.958333,0 40.4375,0 z"
         id="path4295"
         inkscape:connector-curvature="0" />
      <path
         style="opacity:0.09090899;fill:#000000;display:inline"
         d="m 14.28125,33.53125 c 0,13.229167 0,26.458333 0,39.6875 17.145833,0 34.291667,0 51.4375,0 0,-13.291667 0,-26.583333 0,-39.875 -17.145833,0 -34.291667,0 -51.4375,0 l 0,0.1875 z M 60.125,38.9375 c 0,9.5625 0,19.125 0,28.6875 -13.416667,0 -26.833333,0 -40.25,0 0,-9.5625 0,-19.125 0,-28.6875 13.416667,0 26.833333,0 40.25,0 z"
         id="path4299"
         inkscape:connector-curvature="0" />
      <path
         style="opacity:0.09090899;fill:#000000;display:inline"
         d="m 14.15625,33.53125 c 0,13.270833 0,26.541667 0,39.8125 17.229167,0 34.458333,0 51.6875,0 0,-13.375 0,-26.75 0,-40.125 -17.229167,0 -34.458333,0 -51.6875,0 l 0,0.3 0,0.0125 z M 60,39.0625 c 0,9.479167 0,18.958333 0,28.4375 -13.333333,0 -26.666667,0 -40,0 0,-9.479167 0,-18.958333 0,-28.4375 13.333333,0 26.666667,0 40,0 z"
         id="path4303"
         inkscape:connector-curvature="0" />
      <path
         style="opacity:0.09090899;fill:#000000;display:inline"
         d="m 14.0625,33.53125 c 0,13.302083 0,26.604167 0,39.90625 17.291667,0 34.583333,0 51.875,0 0,-13.4375 0,-26.875 0,-40.3125 -17.291667,0 -34.583333,0 -51.875,0 l 0,0.4 0,0.0063 z m 45.84375,5.625 c 0,9.416667 0,18.833333 0,28.25 -13.270833,0 -26.541667,0 -39.8125,0 0,-9.416667 0,-18.833333 0,-28.25 13.270833,0 26.541667,0 39.8125,0 z"
         id="path4307"
         inkscape:connector-curvature="0" />
      <path
         style="opacity:0.09090899;fill:#000000;display:inline"
         d="m 13.96875,33.53125 c 0,13.333333 0,26.666667 0,40 17.354167,0 34.708333,0 52.0625,0 0,-13.5 0,-27 0,-40.5 -17.354167,0 -34.708333,0 -52.0625,0 l 0,0.5 z M 59.8125,39.25 c 0,9.354167 0,18.708333 0,28.0625 -13.208333,0 -26.416667,0 -39.625,0 0,-9.354167 0,-18.708333 0,-28.0625 13.208333,0 26.416667,0 39.625,0 z"
         id="path4311"
         inkscape:connector-curvature="0" />
    </g>
    <g
       style="opacity:0.5;display:inline"
       id="g4315"
       transform="matrix(1.0142142,0,0,1.0142142,2.3046553,951.37303)">
      <path
         style="opacity:0.09090899;fill:#000000;display:inline"
         d="m 28.71875,80.8125 c 7.520833,0 15.041667,0 22.5625,0 -2.24434,-2.199504 -4.142055,-5.235835 -7.71875,-4.21875 -3.603647,0.252735 -7.621704,-0.495005 -10.978553,0.353553 -1.288399,1.288399 -2.576798,2.576798 -3.865197,3.865197 z"
         id="path4317"
         inkscape:connector-curvature="0" />
      <path
         style="opacity:0.09090899;fill:#000000;display:inline"
         d="m 28.5,80.90625 c 7.666667,0 15.333333,0 23,0 -2.189289,-1.660586 -3.593939,-5.215457 -6.80625,-4.40625 -3.929167,0 -7.858333,0 -11.7875,0 -1.46875,1.46875 -2.9375,2.9375 -4.40625,4.40625 z"
         id="path4321"
         inkscape:connector-curvature="0" />
      <path
         style="opacity:0.09090899;fill:#000000;display:inline"
         d="m 28.28125,81 c 7.8125,0 15.625,0 23.4375,0 -1.662152,-1.456645 -3.084488,-3.492258 -4.89375,-4.59375 -4.65,0 -9.3,0 -13.95,0 C 31.34375,77.9375 29.8125,79.46875 28.28125,81 z"
         id="path4325"
         inkscape:connector-curvature="0" />
      <path
         style="opacity:0.09090899;fill:#000000;display:inline"
         d="m 28.03125,81.125 c 7.979167,0 15.958333,0 23.9375,0 -1.614583,-1.614583 -3.229167,-3.229167 -4.84375,-4.84375 -4.75,0 -9.5,0 -14.25,0 -1.614583,1.614583 -3.229167,3.229167 -4.84375,4.84375 z"
         id="path4329"
         inkscape:connector-curvature="0" />
      <path
         style="opacity:0.09090899;fill:#000000;display:inline"
         d="m 27.75,81.21875 c 8.166667,0 16.333333,0 24.5,0 -1.680165,-1.669675 -3.335712,-3.398524 -5.03125,-5.03125 -4.822917,0 -9.645833,0 -14.46875,0 -1.666667,1.677083 -3.333333,3.354167 -5,5.03125 z"
         id="path4333"
         inkscape:connector-curvature="0" />
      <path
         style="opacity:0.09090899;fill:#000000;display:inline"
         id="path4337"
         d="M 32.762204,76.105725 27.543051,81.325 H 52.456949 L 47.237795,76.105849 H 32.762204 z"
         inkscape:connector-curvature="0" />
      <path
         style="opacity:0.09090899;fill:#000000;display:inline"
         d="m 32.6875,76.03125 c -1.806979,1.786306 -3.574436,3.61589 -5.40625,5.375 8.479167,0 16.958333,0 25.4375,0 C 50.862924,79.64428 49.09624,77.75232 47.25,76 c -4.84375,0 -9.6875,0 -14.53125,0 l -0.03125,0.03125 z"
         id="path4339"
         inkscape:connector-curvature="0" />
      <path
         style="opacity:0.09090899;fill:#000000;display:inline"
         d="m 32.59375,75.9375 c -1.838809,1.858878 -3.718967,3.678329 -5.53125,5.5625 8.625,0 17.25,0 25.875,0 -1.87769,-1.866124 -3.715319,-3.894365 -5.6875,-5.59375 -4.882812,0.02108 -9.78579,-0.04199 -14.65625,0.03125 z"
         id="path4343"
         inkscape:connector-curvature="0" />
      <path
         style="opacity:0.09090899;fill:#000000;display:inline"
         d="m 32.53125,75.875 c -1.901562,1.921214 -3.843431,3.803325 -5.71875,5.75 8.791667,0 17.583333,0 26.375,0 C 51.225888,79.679575 49.299694,77.552013 47.25,75.78125 42.35836,75.84542 37.357535,75.654023 32.53125,75.875 z"
         id="path4347"
         inkscape:connector-curvature="0" />
      <path
         style="opacity:0.09090899;fill:#000000;display:inline"
         d="M 32.46875,75.8125 C 30.5,77.78125 28.53125,79.75 26.5625,81.71875 c 8.958333,0 17.916667,0 26.875,0 -2.080465,-1.967046 -4.029099,-4.25236 -6.1875,-6.03125 -4.90628,0.08744 -9.9626,-0.172164 -14.78125,0.125 z"
         id="path4351"
         inkscape:connector-curvature="0" />
      <path
         style="opacity:0.09090899;fill:#000000;display:inline"
         d="m 32.40625,75.75 c -1.54165,1.88749 -5.467205,4.794921 -5.59375,6.0625 8.958333,0 17.916667,0 26.875,0 C 51.493403,79.823679 49.50045,77.369096 47.25,75.59375 42.33089,75.700003 37.198734,75.382687 32.40625,75.75 z"
         id="path4355"
         inkscape:connector-curvature="0" />
    </g>
    <path
       inkscape:connector-curvature="0"
       d="m 17.103415,984.37593 0,40.03917 51.793169,0 0,-40.03917 -51.79317,0 z m 5.291671,5.29167 41.209825,0 0,29.4559 -41.205897,0 -0.0039,-29.4559 z"
       id="path3013"
       style="fill:#ffffff;display:inline" />
    <path
       inkscape:connector-curvature="0"
       d="m 35.659325,1027.546 -5.29334,5.2934 h 25.268029 l -5.293341,-5.2933 H 35.659325 z"
       id="path3015"
       style="fill:#ffffff;display:inline" />
  </g>
</svg>
