<?xml version="1.0" encoding="utf-8"?>


<!-- The icon can be used freely in both personal and commercial projects with no attribution required, but always appreciated. 
You may NOT sub-license, resell, rent, redistribute or otherwise transfer the icon without express written permission from iconmonstr.com -->


<!DOCTYPE svg PUBLIC "-//W3C//DTD SVG 1.1//EN" "http://www.w3.org/Graphics/SVG/1.1/DTD/svg11.dtd">

<svg version="1.1" xmlns="http://www.w3.org/2000/svg" xmlns:xlink="http://www.w3.org/1999/xlink" x="0px" y="0px"

	 width="512px" height="512px" viewBox="0 0 512 512" enable-background="new 0 0 512 512" xml:space="preserve">

<path id="favorite-8-icon" d="M375.95,231.721c-46.756,0-84.66,37.902-84.66,84.658c0,46.757,37.904,84.659,84.66,84.659

	s84.658-37.902,84.658-84.659C460.608,269.623,422.706,231.721,375.95,231.721z M427.979,331.763H326.388v-28.301h101.592V331.763z

	 M297.917,406.059c-13.615,13.557-27.631,27.51-41.915,41.955C124.311,314.82,13.592,221.837,61.299,124.225

	c40.471-82.806,163.416-76.404,194.703-4.258c31.29-72.146,154.235-78.548,194.704,4.258c16.143,33.027,14.135,65.527-0.672,99.232

	c-20.387-16.435-46.307-26.279-74.531-26.279c-65.641,0-118.85,53.212-118.85,118.849

	C256.653,352.015,272.649,384.264,297.917,406.059z"/>

</svg>


