<?xml version="1.0" encoding="utf-8"?>


<!-- The icon can be used freely in both personal and commercial projects with no attribution required, but always appreciated. 
You may NOT sub-license, resell, rent, redistribute or otherwise transfer the icon without express written permission from iconmonstr.com -->


<!DOCTYPE svg PUBLIC "-//W3C//DTD SVG 1.1//EN" "http://www.w3.org/Graphics/SVG/1.1/DTD/svg11.dtd">

<svg version="1.1" xmlns="http://www.w3.org/2000/svg" xmlns:xlink="http://www.w3.org/1999/xlink" x="0px" y="0px"

	 width="512px" height="512px" viewBox="0 0 512 512" enable-background="new 0 0 512 512" xml:space="preserve">

<path id="favorite-9-icon" d="M318.303,391.394c-18.367,18.562-39.027,38.986-62.305,61.643

	C104.158,305.249,61.472,250.888,52.228,195.159C40.919,126.985,91.666,58.964,170.738,58.964c33.889,0,64.684,13.021,85.26,34.764

	c20.575-21.742,51.372-34.764,85.258-34.764c78.727,0,129.877,67.68,118.512,136.195c-2.08,12.535-5.795,24.973-12.156,38.523

	L416.84,202.63c17.014-53.145-18.9-103.666-75.584-103.666c-51.453,0-73.387,40.516-85.258,59.65

	c-11.15-17.971-31.195-59.65-85.26-59.65c-31.93,0-58.846,16.074-72.004,42.996c-33.693,68.938,42.189,138.949,157.264,254.256

	c11.678-11.701,22.936-22.924,33.721-33.73L318.303,391.394z M446.436,282.288h-52.768v-52.768H352.92v52.768h-52.768v40.748h52.768

	v52.768h40.748v-52.768h52.768V282.288z"/>

</svg>


